<svg t="1587272828484" class="icon" viewBox="0 0 1024 1024" version="1.1" xmlns="http://www.w3.org/2000/svg" p-id="2269" width="24" height="24">
    <path d="M597.6064 547.2256c33.6896-7.0656 60.416-17.7152 74.4448-30.9248 42.2912-39.8336 42.2912-106.3936 0.6144-147.968-20.0704-20.0704-46.7968-31.1296-75.264-31.1296-20.48 0-40.1408 5.7344-56.9344 16.4864V170.5984h-56.9344v182.5792c-16.6912-10.3424-35.9424-15.9744-56.1152-15.9744-28.3648 0-55.1936 11.0592-75.264 31.1296-41.6768 41.6768-41.6768 108.1344 0.6144 147.968 14.0288 13.2096 40.448 23.7568 73.8304 30.8224l-73.6256 36.864c-14.0288 7.0656-19.7632 24.064-12.6976 38.1952 7.0656 14.0288 24.064 19.7632 38.1952 12.6976l105.1648-52.5312v270.9504h56.9344V582.3488L645.7344 634.88c14.0288 7.0656 31.1296 1.3312 38.1952-12.6976s1.3312-31.1296-12.6976-38.1952l-73.6256-36.7616zM113.7664 170.5984h796.4672c31.4368 0 56.9344 25.4976 56.9344 56.9344v568.9344c0 31.4368-25.4976 56.9344-56.9344 56.9344H113.7664c-31.4368 0-56.9344-25.4976-56.9344-56.9344V227.4304c0.1024-31.4368 25.4976-56.832 56.9344-56.832zM562.3808 408.576c9.4208-9.4208 21.7088-14.5408 35.0208-14.5408s25.6 5.12 35.0208 14.5408c19.2512 19.2512 19.2512 48.8448 0.6144 66.3552-9.3184 8.704-45.2608 18.6368-90.0096 22.8352 3.4816-44.2368 11.6736-81.5104 19.3536-89.1904z m-99.9424 0c7.7824 7.68 15.872 44.9536 19.456 89.1904-44.7488-4.1984-80.7936-14.1312-90.0096-22.8352-18.6368-17.6128-18.6368-47.104 0.6144-66.3552 9.4208-9.4208 21.7088-14.5408 35.0208-14.5408 13.2096 0 25.4976 5.12 34.9184 14.5408z" fill="#ffffff" p-id="2270"></path></svg>